<svg xmlns="http://www.w3.org/2000/svg" xmlns:xlink="http://www.w3.org/1999/xlink" viewBox="0 0 341.92 242.9"><defs><style>.cls-1{fill:none;}.cls-1,.cls-2,.cls-3,.cls-6,.cls-7{stroke:#000;stroke-linejoin:round;stroke-width:3px;}.cls-2,.cls-8{fill:#182942;}.cls-3{fill:#192b4d;}.cls-4{isolation:isolate;}.cls-5{clip-path:url(#clip-path);}.cls-6{fill:#32466a;}.cls-7{fill:#5373af;}.cls-9{clip-path:url(#clip-path-2);}.cls-10{clip-path:url(#clip-path-3);}</style><clipPath id="clip-path" transform="translate(-75.76 -114.59)"><path class="cls-1" d="M123.67,159.39l-.12,43.2c0-1.71-1.09-3.5-3.29-5.37l.12-43.21Q123.68,156.82,123.67,159.39Z"/></clipPath><clipPath id="clip-path-2" transform="translate(-75.76 -114.59)"><path class="cls-2" d="M372.07,228.44,372,271.65a1.83,1.83,0,0,0-.11-.61c-.58-1.6-4.09-4.27-10.51-8l.12-43.21q9.63,5.55,10.51,8A1.52,1.52,0,0,1,372.07,228.44Z"/></clipPath><clipPath id="clip-path-3" transform="translate(-75.76 -114.59)"><path class="cls-1" d="M333,303.1l.12-43.2a14.08,14.08,0,0,0,1,5L334,308.07A13.88,13.88,0,0,1,333,303.1Z"/></clipPath></defs><g id="Layer_1" data-name="Layer 1"><polygon class="cls-3" points="186.73 21.93 186.6 65.14 163.53 78.55 163.65 35.34 186.73 21.93"/><g class="cls-4"><g class="cls-5"><g class="cls-4"><path class="cls-6" d="M123.67,159.39l-.12,43.2c0-1.71-1.09-3.5-3.29-5.37l.12-43.21q3.3,2.81,3.29,5.38" transform="translate(-75.76 -114.59)"/></g></g><path class="cls-1" d="M123.67,159.39l-.12,43.2c0-1.71-1.09-3.5-3.29-5.37l.12-43.21Q123.68,156.82,123.67,159.39Z" transform="translate(-75.76 -114.59)"/></g><path class="cls-3" d="M235.46,147.55c-.74-.43-1.45-.83-2.14-1.2-.23-.13-.44-.24-.67-.35l-1.33-.7-.73-.36c-.38-.18-.76-.37-1.13-.53l-.72-.32-1-.42a2.52,2.52,0,0,1-.29-.12l-.6-.22-.43-.16c-.42-.15-.83-.28-1.22-.39l-.05,0h0c-.4-.11-.77-.21-1.13-.28H224l-.14,0-.54-.09-.48-.06h0l-.51,0h-.58l-.7.05-.23,0-.41.06-.35,0-.38.08-.41.09-.84.23-.34.1-.09,0-.67.23-.56.21c-.27.1-.55.23-.83.35l-.55.23-1,.47-.48.24c-.48.25-1,.53-1.49.82l-2.1,1.22-18,10.49c-.67.39-1.32.76-2,1.11l-.58.31c-.46.25-.92.5-1.38.73l-.58.3-1.61.78-.21.11c-.6.28-1.18.53-1.76.78l-.48.2c-.42.18-.84.34-1.24.5l-.53.2-1.32.46-.3.11-1.13.33-.56.17c-.55.14-1.08.27-1.61.38s-.9.17-1.38.25l-.43.06c-.53.08-1.07.15-1.63.2l-.23,0c-.5,0-1,.08-1.53.11-.19,0-.38,0-.58,0l-1.28.05h-2.88l-1.11,0-1.36,0-1.15-.08-1.43-.09c-.72-.06-1.45-.12-2.21-.2l0,9c0,.05,0,.1-.07.14-.1.21-.19.41-.31.61a12.81,12.81,0,0,1-.74,1.06c-.2.25-.43.51-.66.76-.08.09-.14.18-.23.27-.33.36-.69.71-1.08,1.07l0,0c-.36.34-.76.68-1.18,1l-.13.11c-.41.34-.86.68-1.32,1l-.22.17c-.46.33-1,.68-1.46,1l-.27.18c-.52.35-1.06.7-1.63,1.06l-.27.16c-.6.38-1.23.76-1.9,1.14l-18.69,10.87-2,1.16-.64.39-.42.26-.41.26-.81.54-.25.17c-.32.23-.62.46-.89.68l-.19.16-.45.39-.12.12-.16.16c-.18.18-.34.35-.48.52l-.08.1,0,0a4.46,4.46,0,0,0-.39.57s0,0,0,0h0a3.11,3.11,0,0,0-.22.45l0,.11,0,.12s0,.09,0,.14a1.24,1.24,0,0,0,0,.33v0h0l-.12,43.21a2,2,0,0,1,.08-.53l0-.11a3.77,3.77,0,0,1,.24-.56l0,0a5,5,0,0,1,.41-.61l.08-.09.48-.52a1.21,1.21,0,0,0,.16-.16c.18-.17.37-.34.58-.51l.18-.16c.28-.22.58-.45.9-.68l.25-.17.81-.55.4-.25c.35-.21.69-.43,1.07-.65l2-1.16L148.15,226c.44-.25.86-.51,1.28-.76l.62-.38.27-.16c.57-.36,1.11-.71,1.63-1.06l.27-.18c.51-.35,1-.69,1.46-1l.22-.16c.46-.34.91-.69,1.32-1l.12-.11c.42-.34.82-.69,1.19-1l0,0h0c.39-.36.74-.71,1.07-1.06.09-.09.15-.18.24-.28s.44-.48.62-.72l0,0a10.78,10.78,0,0,0,.74-1.06,1.74,1.74,0,0,0,.15-.26c.07-.11.11-.24.17-.35s.24-.48.34-.73l.09-.19c0-.1.05-.21.09-.32a7.66,7.66,0,0,0,.23-.82c0-.09.06-.17.08-.26s.05-.32.07-.49a1.52,1.52,0,0,0,0-.21c0-.31.07-.63.08-1,0-.1,0-.19,0-.29v-4.79l.9.08.37,0,1.42.1,1.16.07,1.36.06.85,0H169l.79,0h.64l.64,0,.58,0,1.53-.11.23,0h0c.54-.06,1.07-.12,1.58-.2l.43-.07.67-.1.71-.14c.52-.11,1.06-.24,1.61-.38l.56-.17c.34-.1.69-.19,1-.31l.08,0,.31-.1c.44-.14.87-.3,1.32-.46l.53-.2,1.23-.5.49-.2,1.75-.78.22-.11c.53-.25,1.07-.51,1.61-.79l.58-.29,1.38-.73.57-.31c.65-.36,1.3-.72,2-1.11l18-10.49,2.1-1.22c.5-.29,1-.57,1.49-.82l.48-.24c.32-.16.64-.33,1-.47s.36-.16.54-.23l.83-.36.57-.2c.25-.09.51-.19.76-.26l.34-.1c.28-.09.56-.16.84-.23l.41-.09.73-.13.4-.06c.33,0,.65-.07,1-.08h.06a8.9,8.9,0,0,1,1,0q.48,0,1,.15l.14,0q.57.12,1.2.3l.06,0c.39.11.79.24,1.21.39l.44.16.88.34,1,.42.72.32c.36.16.74.35,1.12.53l.74.36c.43.21.88.45,1.33.69l.67.35,2.14,1.2,3.95,2.39.12-43.21Z" transform="translate(-75.76 -114.59)"/><path class="cls-3" d="M112.63,223.6c-2.08-1.2-4.09-2.33-6-3.39l-11.11-5.78-6.24-3.92q-11.88-7.77-11.85-14l-.12,43.21q0,6.22,11.85,14l6.24,3.93,11.1,5.78c1,.53,2,1.07,3,1.64l3.07,1.75h0Z" transform="translate(-75.76 -114.59)"/><path class="cls-7" d="M245,125.81l5.15,3.08L256.7,133l5.79,3.55-23.08,13.41-3.95-2.38q-8.44-4.87-12.66-5.26c-2.8-.24-6.28.84-10.41,3.24l-2.1,1.22-18,10.49q-8.85,5.14-15.25,6.47c-4.26.89-10,1-17.2.26,1.36,3.83,1.22,7.07-.4,9.75s-5.33,5.71-11.12,9.07l-18.69,10.87-2,1.16c-4.31,2.51-6.18,4.56-5.58,6.18s4.08,4.26,10.51,8l2.66,1.53L112.63,223.6c-2.08-1.2-4.09-2.33-6-3.39l-11.11-5.78-6.24-3.92q-12.14-7.95-11.84-14.28t13.14-13.81l24.55-14.26q7.11-4.12,8.32-7.33c.81-2.15-.19-4.41-3-6.82l23.9-13.89c6.42,2.52,12,2.72,16.66.64l4.66-2.06,1.28-.64,24.35-14.15q14.13-8.22,25.94-7.8T245,125.81Z" transform="translate(-75.76 -114.59)"/><polygon class="cls-3" points="59.4 95.92 59.28 139.13 36.75 152.22 36.88 109.02 59.4 95.92"/><polygon class="cls-2" points="177.73 73.53 177.61 116.73 149.06 100.25 149.18 57.04 177.73 73.53"/><polygon class="cls-2" points="243.46 111.48 243.34 154.68 214.88 138.25 215 95.04 243.46 111.48"/><polygon class="cls-3" points="279.21 90.7 279.09 133.91 243.34 154.68 243.46 111.48 279.21 90.7"/><polygon class="cls-2" points="126.25 146.62 126.13 189.83 88.86 168.31 88.98 125.1 126.25 146.62"/><polygon class="cls-3" points="215 95.04 214.88 138.25 126.13 189.83 126.25 146.62 215 95.04"/><polygon class="cls-7" points="279.21 90.7 243.46 111.48 215 95.04 126.25 146.62 88.98 125.1 177.73 73.53 149.18 57.04 184.93 36.27 279.21 90.7"/><polygon class="cls-2" points="285.69 105.27 285.57 148.48 282.82 146.99 282.94 103.78 285.69 105.27"/><path class="cls-8" d="M372.07,228.44,372,271.65a1.83,1.83,0,0,0-.11-.61c-.58-1.6-4.09-4.27-10.51-8l.12-43.21q9.63,5.55,10.51,8A1.52,1.52,0,0,1,372.07,228.44Z" transform="translate(-75.76 -114.59)"/><g class="cls-9"><g class="cls-4"><path class="cls-2" d="M372.07,228.44,372,271.65a1.83,1.83,0,0,0-.11-.61c-.58-1.6-4.09-4.27-10.51-8l.12-43.21q9.63,5.55,10.51,8a1.52,1.52,0,0,1,.11.6" transform="translate(-75.76 -114.59)"/></g></g><path class="cls-1" d="M372.07,228.44,372,271.65a1.83,1.83,0,0,0-.11-.61c-.58-1.6-4.09-4.27-10.51-8l.12-43.21q9.63,5.55,10.51,8A1.52,1.52,0,0,1,372.07,228.44Z" transform="translate(-75.76 -114.59)"/><g class="cls-4"><g class="cls-10"><g class="cls-4"><path class="cls-6" d="M334.16,264.86,334,308.07a13.88,13.88,0,0,1-1-5l.12-43.2a14.08,14.08,0,0,0,1,5" transform="translate(-75.76 -114.59)"/></g></g><path class="cls-1" d="M333,303.1l.12-43.2a14.08,14.08,0,0,0,1,5L334,308.07A13.88,13.88,0,0,1,333,303.1Z" transform="translate(-75.76 -114.59)"/></g><path class="cls-3" d="M416.12,232.66v0a7.81,7.81,0,0,1-.14.82l-.06.26c-.05.19-.1.39-.16.58s-.06.19-.1.29-.13.36-.21.55-.09.21-.14.32-.19.39-.29.59l-.14.27c-.07.13-.16.26-.24.4s-.21.35-.33.53l-.3.42c-.12.17-.24.34-.38.51a3.11,3.11,0,0,1-.23.28c-.24.29-.49.59-.76.88l-.31.34c-.31.32-.64.65-1,1l-.15.15c-.41.37-.85.75-1.3,1.12l-.39.31c-.36.29-.74.58-1.13.87l-.43.32c-.52.38-1.06.75-1.64,1.13l-.14.1c-.53.35-1.09.7-1.67,1.05l-1.16.69-24.55,14.27c-.3.17-.59.34-.87.52l-.41.25-.7.45-.79.51-.62.44c-.24.17-.47.33-.69.5s-.38.28-.55.42l-.6.49-.47.41-.16.14-.44.43-.25.25a9.74,9.74,0,0,0-.69.79h0l0,0a7.68,7.68,0,0,0-.51.75l-.06.1,0,.06a4.68,4.68,0,0,0-.34.72h0a3.28,3.28,0,0,0-.19.66v0c0,.08,0,.15,0,.23a3,3,0,0,0-.05.42v.1h0l-.12,43.21a3.17,3.17,0,0,1,0-.53c0-.07,0-.15,0-.22a4.48,4.48,0,0,1,.2-.69,4.37,4.37,0,0,1,.38-.79.47.47,0,0,1,.06-.09,5.53,5.53,0,0,1,.51-.75l0,0c.2-.26.44-.53.7-.81l.25-.24c.19-.19.38-.38.6-.58l.47-.4L374,307l.55-.42.69-.51.63-.43.78-.52.71-.44,1.28-.78,24.54-14.26.94-.55.23-.14,1.68-1.06.13-.09c.57-.38,1.12-.76,1.64-1.13l.43-.32c.39-.29.77-.58,1.13-.87l.38-.31c.46-.37.9-.75,1.3-1.13l0,0,.12-.12q.52-.49,1-1l.31-.33c.27-.29.52-.59.76-.88l.16-.19.07-.09.38-.52c.1-.13.2-.27.29-.41s.23-.35.33-.53l.22-.35,0-.06c.05-.09.09-.17.13-.26s.21-.4.3-.59l.14-.33c0-.11.1-.22.14-.34a1.72,1.72,0,0,0,.07-.21c0-.09.06-.19.1-.28s.11-.39.16-.58l.06-.26,0-.11c0-.24.08-.48.11-.71v0c0-.23,0-.45.05-.67V275l.12-43.21A6.35,6.35,0,0,1,416.12,232.66Z" transform="translate(-75.76 -114.59)"/><path class="cls-7" d="M398.48,214.4l6.23,3.92q23.61,13.63-1.38,28.14l-24.55,14.27c-4.67,2.71-7.42,5.15-8.23,7.28s.19,4.41,3,6.81l-23.9,13.89q-9.72-3.7-16.74-.58l-4.48,2.06c-.85.35-1.33.57-1.46.64L302.63,305q-14.14,8.22-25.93,7.79t-27.88-9.7L243.67,300l-6.6-4.14-5.7-3.49L254.45,279l3.95,2.38c5.63,3.25,9.87,5,12.69,5.22s6.3-.84,10.38-3.21l2.1-1.21,18.05-10.5q8.94-5.19,15.34-6.52t17.2-.26c-1.43-3.78-1.32-7,.3-9.7s5.34-5.71,11.13-9.07l18.78-10.91,2-1.17c4.31-2.51,6.18-4.57,5.58-6.17s-4.09-4.28-10.51-8l-2.75-1.49,22.53-13.09c2,1.17,4,2.26,6,3.29Z" transform="translate(-75.76 -114.59)"/><polygon class="cls-3" points="297.8 160.23 297.68 203.44 273.78 217.32 273.9 174.12 297.8 160.23"/><path class="cls-3" d="M336.41,330.21h.09a17.31,17.31,0,0,1,1.78-.23l.36,0a17.72,17.72,0,0,1,1.79,0h.23c.58,0,1.16.08,1.76.15l.3,0c.64.09,1.3.21,2,.35.29.06.59.14.88.22.46.11.93.23,1.41.37l.43.13c.71.22,1.42.46,2.14.73l.12-43.2c-.72-.28-1.43-.52-2.13-.74l-.44-.13-.36-.11c-.36-.1-.7-.18-1.05-.26s-.59-.16-.87-.22l-.19,0c-.55-.12-1.09-.21-1.62-.29h-.16l-.3,0c-.3,0-.6-.08-.9-.1l-.86,0h-.36c-.4,0-.79,0-1.18,0l-.48,0-.36,0-.37,0c-.46,0-.92.11-1.37.19h0l-.09,0a14,14,0,0,0-1.67.41l-.21.06-.14,0a15.31,15.31,0,0,0-1.59.61l-4.48,2.06c-.85.35-1.33.57-1.46.64L302.63,305c-.57.33-1.13.65-1.7,1l-.57.31-1.11.59-.67.34-1,.49-.7.34-.94.43-.72.32c-.31.13-.61.27-.92.39l-.72.3-.9.35-.71.27-.89.31c-.24.08-.47.17-.71.24l-.62.2c-.85.27-1.7.52-2.53.73l-.35.08c-.87.22-1.74.41-2.6.57l-1.52.24-.22,0-1.29.15c-.67.07-1.34.11-2,.14h-.54c-.44,0-.87,0-1.31,0h-.68l-1.53-.09-.17,0c-.58-.05-1.16-.11-1.74-.19l-.51-.08c-.75-.11-1.51-.24-2.29-.4l-.56-.12-1.1-.25-.69-.18-1-.27-.39-.12c-.74-.21-1.49-.45-2.25-.71l-.41-.13c-.82-.28-1.65-.59-2.49-.92l-.54-.21c-.87-.35-1.75-.71-2.65-1.11l-.19-.09c-.86-.38-1.73-.79-2.61-1.22l-.51-.24c-.9-.45-1.82-.92-2.75-1.42l-.56-.3c-1-.52-1.94-1.06-2.92-1.63L243.67,300l-6.6-4.14-5.7-3.49-.12,43.2,5.7,3.5,6.6,4.14,5.14,3.07c1,.57,2,1.11,2.93,1.63l.56.3c.93.5,1.84,1,2.75,1.41l.5.25c.88.43,1.76.84,2.62,1.22l.19.09c.9.4,1.78.76,2.65,1.11l.3.12.24.09c.84.33,1.67.64,2.49.92l.4.13c.76.26,1.52.49,2.26.71l.25.08.14,0,1,.28.68.18,1.1.25.53.12h0c.78.16,1.54.29,2.29.4l.26,0,.25,0c.58.07,1.16.14,1.73.19l.14,0h0l1.53.09h2.29l.24,0c.66,0,1.33-.06,2-.13h0l1.33-.16.15,0c.51-.07,1-.15,1.52-.24h0c.86-.15,1.72-.34,2.59-.56l.36-.08c.83-.22,1.68-.46,2.53-.73l.23-.07.39-.13.71-.24.89-.32.71-.26.9-.36.72-.29.92-.39.71-.32.95-.44.7-.33,1-.5.67-.33,1.11-.6.57-.3,1.7-1L326.86,334c.12-.07.61-.29,1.46-.64l4.47-2.07a15.79,15.79,0,0,1,1.74-.64l.21-.07C335.29,330.46,335.84,330.32,336.41,330.21Z" transform="translate(-75.76 -114.59)"/></g><g id="Layer_4" data-name="Layer 4"><rect class="cls-3" x="85.74" y="49.91" height="43"/></g></svg>